<svg xmlns="http://www.w3.org/2000/svg" viewBox="0 0 1024 559" role="img" aria-labelledby="oyak-logo-title">
  <title id="oyak-logo-title">OYAK logo</title>
  <style>.st0{fill:#ee1b2e}</style>
  <path d="M271 199.7c-51.8 0-78.9 33.4-78.9 88.1 0 54.2 27.5 88.2 78.9 88.2s78.9-33.9 78.9-88.1c0-54.7-27-88.2-78.9-88.2Zm78.9 9.3 58.1 98.3v59.5h42v-59.4l57.7-98.3h-48.2L429 272.3 398.2 209Zm203.8 0-64.5 157.8h46l13.4-33.7h63.8l12.7 33.7h49.7L609.2 209Zm121 157.8h43v-71.6h.5l50.2 71.6h54.8l-64.3-84.3 59.7-73.4h-51.8l-48.6 64.4h-.5V209h-43Zm-403.7-133.4c25.5 0 35.6 24.9 35.6 54.5 0 28.1-10.1 54.5-35.6 54.5s-35.6-26.4-35.6-54.5c0-29.6 10.2-54.5 35.6-54.5Zm310 8.1h.5l20.2 61.7h-42.6Z"/>
  <path class="st0" d="M162.8 461c1.8 3.6 172.5 76.8 379.5 51.8C811.4 480.4 889 370.9 892.5 284c4-99-139.4-214-380.9-214-230.1 0-379.4 107.3-379.4 211.6 0 67.6 69 146.3 224.3 158 59.7 4.5 212.4-7 325.3-36-52.1 24.9-130.9 52.1-238.7 65C238.4 493.3 15.8 427.2 15.8 282.5c0-148.7 229.8-266.6 497-266.6 291.5 0 495.4 133 495.4 267.9 0 131.7-205 259.3-525.8 259.3-200.3 0-317.8-79.6-319.6-82.1Z"/>
</svg>
