<svg xmlns="http://www.w3.org/2000/svg" viewBox="0 0 96 96" role="img" aria-labelledby="title desc">
  <title id="title">Oyak Dijital logo işareti</title>
  <desc id="desc">Oyak Dijital bağlantısı için responsive marka işareti.</desc>
  <defs>
    <linearGradient id="g" x1="15" x2="82" y1="12" y2="84" gradientUnits="userSpaceOnUse">
      <stop stop-color="#e23a2e"/>
      <stop offset=".52" stop-color="#c91f1c"/>
      <stop offset="1" stop-color="#8f1718"/>
    </linearGradient>
  </defs>
  <rect width="96" height="96" rx="24" fill="#fff"/>
  <path fill="url(#g)" d="M48 14c18.8 0 34 15.2 34 34S66.8 82 48 82 14 66.8 14 48s15.2-34 34-34Zm0 13.5A20.5 20.5 0 1 0 48 68.5a20.5 20.5 0 0 0 0-41Z"/>
  <path fill="#fff" d="M48 34.6 59.6 48 48 61.4 36.4 48 48 34.6Z"/>
  <path fill="#c91f1c" d="M48 42.1 53.1 48 48 53.9 42.9 48 48 42.1Z"/>
</svg>
